<svg xmlns="http://www.w3.org/2000/svg" viewBox="0 0 24 24" fill="none" class="w-6 h-6">
  <!-- Tag Outline -->
  <path d="M12 2H2v10l9.29 9.29c.94.94 2.48.94 3.42 0l6.58-6.58c.94-.94.94-2.48 0-3.42L12 2Z" stroke="#f43f5e" stroke-width="2" stroke-linecap="round" stroke-linejoin="round"/>
  <!-- Heart Fill (The 'Mate' part) -->
  <path d="M7 5.5c-1.1 0-2 .9-2 2 0 2.3 3 4.5 3 4.5s3-2.2 3-4.5c0-1.1-.9-2-2-2-.6 0-1.1.3-1.5.8-.4-.5-.9-.8-1.5-.8Z" fill="#f43f5e" stroke="none" transform="translate(-1, 0)"/>
</svg>
